<svg xmlns="http://www.w3.org/2000/svg" xmlns:xlink="http://www.w3.org/1999/xlink" version="1.1" x="0px" y="0px" viewBox="0 0 100 125" enable-background="new 0 0 100 100" xml:space="preserve"><path d="M73.231,59.655c0-2.834-1.27-5.515-3.39-7.328c0.737-1.362,1.157-2.92,1.157-4.574c0-5.311-4.32-9.631-9.631-9.631  c-2.865,0-5.455,1.26-7.229,3.274c-0.129-0.296-0.272-0.584-0.43-0.863c0.033-3.911,1.092-14.02,5.672-17.022  c0.739-0.485,0.946-1.478,0.461-2.217c-0.484-0.74-1.479-0.946-2.217-0.461c-1.958,1.284-3.376,3.339-4.404,5.651l-1.186-0.766  c1.371-3.975,1.449-11.08-1.127-13.697c-0.886-0.899-2.187-0.899-2.614-0.899c-0.697,0-1.434,0.099-2.146,0.194  c-0.605,0.081-1.176,0.158-1.607,0.158c-0.236,0-0.318-0.019-0.315-0.021c-0.302-0.13-1.037-0.934-1.476-1.415  c-1.17-1.281-2.38-2.606-3.95-2.606c-0.126,0-0.253,0.009-0.378,0.027c-1.556,0.228-2.336,1.771-3.025,3.132  c-0.218,0.432-0.574,1.134-0.785,1.37c-0.083,0.018-0.273,0.046-0.65,0.046c-0.363,0-0.755-0.023-1.149-0.045  c-0.461-0.026-0.925-0.052-1.358-0.052c-0.67,0-2.45,0-3.281,1.375c-0.926,1.534,0.091,3.226,0.988,4.72  c0.286,0.475,0.752,1.252,0.838,1.59c-0.109,0.295-0.567,0.938-0.849,1.332c-0.892,1.25-1.903,2.667-1.356,4.157  c0.6,1.638,2.559,2.154,4.288,2.608c0.631,0.166,1.687,0.444,1.932,0.643c0.217,0.225,0.572,1.195,0.784,1.774  c0.583,1.594,1.244,3.401,2.838,3.884c0.463,0.14,0.979,0.21,1.533,0.21c3.579,0,8.759-2.957,11.248-5.718l1.682,1.087  c-0.815,2.76-1.214,5.562-1.407,7.675c-1.538-1.04-3.391-1.647-5.382-1.647c-5.166,0-9.384,4.093-9.609,9.204  c-3.991,1.228-6.766,4.89-6.766,9.189c0,1.097,0.194,2.146,0.533,3.129c-1.725,1.786-2.698,4.159-2.698,6.678  c0,4.405,2.977,8.12,7.021,9.262c-0.037,0.346-0.062,0.693-0.062,1.043c0,4.698,3.383,8.615,7.839,9.458  c0.322,5.021,4.499,9.012,9.599,9.012c5.311,0,9.631-4.321,9.631-9.632c0-0.586-0.059-1.161-0.162-1.728  c4.287-0.974,7.5-4.809,7.5-9.386c0-1.165-0.21-2.309-0.613-3.384C70.881,66.938,73.231,63.568,73.231,59.655z M39.169,30.999  c-0.189,0-0.356-0.016-0.498-0.046c-0.269-0.312-0.639-1.326-0.866-1.946c-0.438-1.196-0.851-2.326-1.625-3.033  c-0.796-0.728-2.005-1.046-3.284-1.381c-0.577-0.152-1.467-0.387-1.932-0.609c0.19-0.354,0.553-0.862,0.793-1.2  c0.723-1.012,1.404-1.968,1.452-3.044c0.05-1.136-0.607-2.229-1.302-3.387c-0.208-0.346-0.507-0.843-0.7-1.239  c0.073-0.002,0.156-0.004,0.249-0.004c0.375,0,0.776,0.024,1.175,0.047c0.457,0.026,0.912,0.051,1.332,0.051  c0.679,0,1.551-0.054,2.271-0.474c0.93-0.543,1.46-1.59,2.021-2.698c0.188-0.373,0.472-0.933,0.697-1.266  c0.413,0.308,1.032,0.986,1.434,1.426c0.892,0.977,1.734,1.9,2.749,2.267c0.396,0.143,0.857,0.213,1.407,0.213  c0.645,0,1.351-0.095,2.034-0.187c0.608-0.082,1.236-0.166,1.719-0.166c0.216,0,0.344,0.017,0.41,0.031  c1.284,1.499,1.336,6.508,0.545,9.563l-4.781-3.09c-0.743-0.48-1.733-0.267-2.214,0.476c-0.48,0.743-0.267,1.734,0.476,2.214  l4.951,3.2C45.666,28.708,41.572,30.999,39.169,30.999z M61.368,41.324c3.545,0,6.429,2.884,6.429,6.429  c0,3.544-2.884,6.428-6.429,6.428c-0.201,0-0.4-0.022-0.6-0.041c-0.213-3.627-2.436-6.717-5.573-8.17  C55.971,43.26,58.46,41.324,61.368,41.324z M55.951,65.489c0.018,0.191,0.028,0.386,0.028,0.583c0,3.545-2.883,6.429-6.427,6.429  c-2.229,0-4.256-1.146-5.422-2.984c1.188-1.603,1.9-3.577,1.9-5.72c0-0.334-0.022-0.664-0.056-0.992  c1.5,0.966,3.28,1.533,5.192,1.533c1.297,0,2.532-0.262,3.662-0.729C55.134,64.282,55.509,64.912,55.951,65.489z M51.166,61.135  c-3.544,0-6.428-2.884-6.428-6.429s2.884-6.429,6.428-6.429c3.545,0,6.43,2.884,6.43,6.429S54.711,61.135,51.166,61.135z   M45.309,38.799c3.503,0,6.355,2.817,6.422,6.305c-0.188-0.011-0.375-0.029-0.565-0.029c-3.965,0-7.375,2.41-8.851,5.841  c-2.076-1.091-3.435-3.259-3.435-5.689C38.881,41.683,41.765,38.799,45.309,38.799z M36.109,48.057  c0.829,2.7,2.813,4.928,5.457,6.042c-0.013,0.201-0.031,0.402-0.031,0.607c0,1.549,0.376,3.009,1.029,4.308  c-1.13,0.898-2.535,1.405-3.999,1.405c-3.545,0-6.429-2.884-6.429-6.429C32.137,51.368,33.769,49.037,36.109,48.057z M29.971,63.797  c0-1.339,0.418-2.613,1.167-3.681c1.768,2.14,4.44,3.506,7.427,3.506c1.454,0,2.869-0.338,4.153-0.953  c0.065,0.369,0.109,0.744,0.109,1.128c0,3.545-2.884,6.429-6.428,6.429C32.854,70.226,29.971,67.342,29.971,63.797z M36.93,74.102  c0-0.236,0.025-0.47,0.05-0.703c1.773-0.106,3.422-0.684,4.81-1.625c1.788,2.438,4.646,3.93,7.762,3.93  c0.008,0,0.017-0.002,0.025-0.002c-0.714,2.772-3.227,4.829-6.219,4.829C39.813,80.53,36.93,77.646,36.93,74.102z M51.166,89.368  c-3.315,0-6.051-2.523-6.392-5.751c3.031-0.45,5.607-2.306,7.028-4.893c1.502,1.455,3.461,2.412,5.595,2.661  c0.127,0.505,0.198,1.023,0.198,1.554C57.596,86.484,54.711,89.368,51.166,89.368z M64.933,71.826c0,3.545-2.884,6.429-6.429,6.429  c-2.313,0-4.414-1.254-5.548-3.185c3.022-1.147,5.325-3.768,6.012-6.986c1.388,0.767,2.971,1.202,4.633,1.202  c0.266,0,0.527-0.02,0.787-0.04C64.743,70.055,64.933,70.93,64.933,71.826z M63.601,66.083c-2.71,0-5.11-1.723-6.028-4.205  c1.343-1.201,2.347-2.767,2.853-4.546c0.313,0.03,0.627,0.052,0.943,0.052c2.499,0,4.771-0.965,6.484-2.531  c1.358,1.21,2.177,2.953,2.177,4.803C70.029,63.199,67.146,66.083,63.601,66.083z"/><text x="0" y="115" fill="#000000" font-size="5px" font-weight="bold" font-family="'Helvetica Neue', Helvetica, Arial-Unicode, Arial, Sans-serif">Created by Fernando Affonso</text><text x="0" y="120" fill="#000000" font-size="5px" font-weight="bold" font-family="'Helvetica Neue', Helvetica, Arial-Unicode, Arial, Sans-serif">from the Noun Project</text></svg>