<svg xmlns="http://www.w3.org/2000/svg" xmlns:xlink="http://www.w3.org/1999/xlink" version="1.1" x="0px" y="0px" viewBox="0 0 100 125" enable-background="new 0 0 100 100" xml:space="preserve"><path d="M60.113,60.74c0.105-0.037,0.209-0.078,0.314-0.116c0.146-0.052,0.25-0.086,0.25-0.086c0.002-0.002,0.002-0.005,0.002-0.007  c8.643-3.203,13.965-10.469,13.965-20.042c0-9.638-4.725-35.655-4.926-36.759L69.495,2.5h-38.99L30.28,3.73  c-0.201,1.104-4.925,27.121-4.925,36.759c0,9.573,5.322,16.839,13.964,20.042c0.001,0.002,0.001,0.005,0.002,0.007  c0,0,0.104,0.034,0.251,0.087c0.105,0.037,0.207,0.078,0.313,0.114c1.101,0.413,3.635,1.489,5.681,3.298  c1.702,2.164,2.773,4.715,2.593,8.337v16.263c-0.921,7.368-15.657,8.289-15.657,8.289c-0.509,0-0.921,0.41-0.921,0.922  c0,0.508,0.412,0.92,0.921,0.92H67.5c0.51,0,0.921-0.412,0.921-0.92c0-0.512-0.411-0.922-0.921-0.922c0,0-14.736-0.921-15.657-8.289  V72.374c-0.181-3.625,0.894-6.176,2.597-8.342C56.482,62.229,59.014,61.154,60.113,60.74z M29.195,30.222  c1.151-9.43,3.153-20.979,3.816-24.722H66.99c0.616,3.474,2.383,13.669,3.555,22.658c-2.001-0.176-7.714-0.442-14.577,1.24  c-1.925,0.4-3.946,0.984-6.043,1.836C42.408,34.288,32.891,31.528,29.195,30.222z"/><text x="0" y="115" fill="#000000" font-size="5px" font-weight="bold" font-family="'Helvetica Neue', Helvetica, Arial-Unicode, Arial, Sans-serif">Created by Thengakola</text><text x="0" y="120" fill="#000000" font-size="5px" font-weight="bold" font-family="'Helvetica Neue', Helvetica, Arial-Unicode, Arial, Sans-serif">from the Noun Project</text></svg>