<svg xmlns="http://www.w3.org/2000/svg" xmlns:xlink="http://www.w3.org/1999/xlink" version="1.1" x="0px" y="0px" viewBox="0 0 100 125" enable-background="new 0 0 100 100" xml:space="preserve"><g><path d="M87.984,23.78C84.095,11.249,78.626,5,78.626,5h-7.423H28.698h-7.423c0,0-5.386,6.287-9.244,18.78H87.984z"/><path d="M8.208,50.438c0,7.206,1.041,13.896,2.539,19.783h78.449c1.528-5.952,2.596-12.706,2.596-19.977   c0-7.849-0.889-14.664-2.204-20.468H10.435C9.109,35.634,8.208,42.517,8.208,50.438"/><path d="M12.499,76.22C16.308,87.756,21.276,95,21.276,95h7.423h42.505h7.423c0,0,4.968-7.263,8.799-18.78H12.499z"/></g><text x="0" y="115" fill="#000000" font-size="5px" font-weight="bold" font-family="'Helvetica Neue', Helvetica, Arial-Unicode, Arial, Sans-serif">Created by Francesca Ameglio</text><text x="0" y="120" fill="#000000" font-size="5px" font-weight="bold" font-family="'Helvetica Neue', Helvetica, Arial-Unicode, Arial, Sans-serif">from the Noun Project</text></svg>